<svg xmlns="http://www.w3.org/2000/svg" width="16" height="16" fill="none"><path fill="#FF5E5E" d="M7.028 11.5c0-.186 0-.279.015-.356a.8.8 0 0 1 .629-.629c.077-.015.17-.015.356-.015s.279 0 .356.015a.8.8 0 0 1 .629.629c.015.077.015.17.015.356s0 .279-.015.356a.8.8 0 0 1-.629.629c-.077.015-.17.015-.356.015s-.279 0-.356-.015a.8.8 0 0 1-.629-.629c-.015-.077-.015-.17-.015-.356M7.005 5.58C6.946 5.045 7.408 5 8 5c.591 0 1.054.045.995.58L8.5 9.29c-.022.197-.241.209-.46.209h-.08c-.219 0-.438-.012-.46-.209z"/><path fill="#FF5E5E" fill-rule="evenodd" d="M5.206 2.167C5.936 1.237 6.804.5 8 .5s2.063.736 2.794 1.667c.718.913 1.485 2.25 2.43 3.899l.586 1.02c.803 1.399 1.463 2.55 1.832 3.5.384.991.546 1.994.041 2.967-.506.977-1.396 1.402-2.405 1.612-.945.197-2.193.244-3.684.3l-.092.004c-.52.02-1.027.031-1.502.031s-.982-.012-1.502-.031l-.092-.004c-1.492-.056-2.739-.103-3.684-.3-1.009-.21-1.9-.635-2.405-1.612-.505-.973-.344-1.976.04-2.966.37-.952 1.03-2.102 1.833-3.5l.585-1.021c.946-1.65 1.713-2.986 2.43-3.9m1.572 1.235c-.616.785-1.312 1.992-2.31 3.733l-.501.873c-.856 1.49-1.437 2.51-1.745 3.302-.299.77-.246 1.098-.13 1.323.115.222.32.425 1.037.574.76.158 1.837.202 3.444.263.502.02.983.03 1.427.03s.925-.01 1.427-.03c1.607-.06 2.683-.105 3.444-.263.716-.149.922-.352 1.037-.574.116-.225.168-.552-.13-1.323-.308-.793-.89-1.811-1.745-3.302l-.5-.873c-1-1.741-1.695-2.948-2.311-3.733C8.607 2.62 8.256 2.5 8 2.5s-.607.12-1.222.902" clip-rule="evenodd"/></svg>