<svg xmlns="http://www.w3.org/2000/svg" width="16" height="16" fill="none"><path fill="#122DB2" d="M7.028 5.018c0-.185 0-.278.015-.356a.8.8 0 0 1 .629-.628c.077-.016.17-.016.356-.016s.279 0 .356.016a.8.8 0 0 1 .629.628c.015.078.015.17.015.356s0 .28-.015.356a.8.8 0 0 1-.629.629c-.077.015-.17.015-.356.015s-.279 0-.356-.015a.8.8 0 0 1-.629-.629c-.015-.077-.015-.17-.015-.356M6.852 7.055l-.81 3.92c-.151.486.001.659.219.904l.002.003.042.048c.196.224.346.396.83.28l2.686-.407a.2.2 0 0 0 .168-.228l-.2-1.286a.2.2 0 0 0-.226-.168l-1.499.214.599-3.283a.2.2 0 0 0-.197-.236h-1.32a.3.3 0 0 0-.294.24"/><path fill="#122DB2" fill-rule="evenodd" d="M7.8 0h.4c1.669 0 2.748 0 3.654.294a6 6 0 0 1 3.852 3.852c.295.906.294 1.985.294 3.654v.4c0 1.669 0 2.748-.294 3.654a6 6 0 0 1-3.852 3.852C10.948 16.001 9.87 16 8.2 16h-.4c-1.669 0-2.748 0-3.654-.294a6 6 0 0 1-3.852-3.852C-.001 10.948 0 9.87 0 8.2v-.4c0-1.668 0-2.748.294-3.654A6 6 0 0 1 4.146.294C5.052-.001 6.132 0 7.801 0M8 2c-1.939 0-2.671.012-3.236.196a4 4 0 0 0-2.568 2.568C2.012 5.329 2 6.061 2 8s.012 2.672.196 3.236a4 4 0 0 0 2.568 2.568C5.329 13.988 6.061 14 8 14s2.672-.012 3.236-.196a4 4 0 0 0 2.568-2.568C13.988 10.672 14 9.94 14 8s-.012-2.671-.196-3.236a4 4 0 0 0-2.568-2.568C10.672 2.012 9.94 2 8 2" clip-rule="evenodd"/></svg>