<svg xmlns="http://www.w3.org/2000/svg" width="24" height="24" fill="none"><path fill="#050D33" d="M19.204 2.625H7.608c-.993 0-1.797.805-1.797 1.797v6.729h5.067c.881 0 1.596.715 1.596 1.596v5.067h6.648A1.88 1.88 0 0 0 21 15.936V4.422c0-.992-.804-1.797-1.796-1.797M7.408 17.815A1.597 1.597 0 0 1 5.81 16.22v-5.067H2.889c-.993 0-1.797.804-1.797 1.796v7.79c0 .993.804 1.797 1.797 1.797h7.79c.992 0 1.796-.804 1.796-1.797v-2.922H7.408"/><path fill="#EEFD7D" d="M10.878 11.15H5.81v5.068c0 .881.715 1.596 1.597 1.596h5.066v-5.067c0-.88-.715-1.596-1.596-1.596"/></svg>