<svg xmlns="http://www.w3.org/2000/svg" width="20" height="20" fill="none"><path fill="#050D33" fill-rule="evenodd" d="M2.725 6.03c-.336-.184-.504-.276-.546-.447s.058-.321.258-.621A9 9 0 1 1 5.33 17.694c-.31-.184-.466-.276-.502-.449-.035-.172.076-.328.3-.639l.234-.324c.214-.298.321-.447.47-.48.15-.032.324.065.672.26A7 7 0 1 0 4.2 5.925c-.23.327-.345.49-.494.525-.148.034-.309-.054-.63-.23z" clip-rule="evenodd"/><path fill="#050D33" d="M1.694 9.586a.9.9 0 0 1-1.247-.839L.49 4.081a.9.9 0 0 1 1.402-.739l4.265 2.869a.9.9 0 0 1-.155 1.577z"/></svg>