<svg xmlns="http://www.w3.org/2000/svg" width="20" height="20" fill="none"><path fill="#050D33" d="M9.293 1.293a1 1 0 0 1 1.414 0l6.076 6.076a.6.6 0 0 1 0 .848l-.566.566a.6.6 0 0 1-.849 0L11 4.414V14.4a.6.6 0 0 1-.6.6h-.8a.6.6 0 0 1-.6-.6V4.414L4.63 8.783a.6.6 0 0 1-.848 0l-.566-.566a.6.6 0 0 1 0-.848z"/><path fill="#050D33" d="M2.115 13.118c-.117.118-.116.306-.114.682.004.804.021 1.498.1 2.076.106.792.341 1.516.924 2.099s1.307.818 2.098.925c.748.1 1.688.1 2.808.1h4.137c1.12 0 2.06 0 2.808-.1.792-.107 1.516-.342 2.099-.925.582-.583.818-1.307.924-2.099.093-.685.104-1.382.103-2.076 0-.377 0-.566-.118-.683S17.578 13 17.2 13h-.4c-.377 0-.565 0-.682.116-.117.117-.118.306-.12.684-.004.78-.02 1.355-.08 1.81-.077.57-.208.801-.358.95-.149.15-.38.28-.95.357-.599.08-1.403.083-2.61.083H8c-1.207 0-2.011-.002-2.61-.083-.57-.076-.802-.207-.95-.356-.15-.15-.281-.381-.358-.951-.06-.455-.077-1.03-.08-1.81-.003-.378-.004-.567-.12-.684C3.763 13 3.575 13 3.2 13h-.4c-.378 0-.567 0-.685.118"/></svg>